<svg width="1621.000000" height="166.000000" viewBox="0 0 1621 166" fill="none" xmlns="http://www.w3.org/2000/svg" xmlns:xlink="http://www.w3.org/1999/xlink">
	<desc>
			Created with Pixso.
	</desc>
	<defs/>
	<path id="Vector" d="M0 140.44L33.59 140.44C67.84 140.44 135.02 140.44 202.87 106.59C270.05 72.39 337.9 4.69 405.08 0.2C472.92 -3.94 540.11 55.47 607.95 68.25C675.14 81.03 742.98 47.18 810.82 55.47C878.01 64.1 945.85 114.88 1013.04 114.88C1080.89 114.88 1148.06 64.1 1215.91 42.69C1283.1 21.62 1350.94 29.91 1418.13 34.4C1485.97 38.54 1553.16 38.54 1587.41 38.54L1621 38.54L1621 166L1587.41 166C1553.16 166 1485.97 166 1418.13 166C1350.94 166 1283.1 166 1215.91 166C1148.06 166 1080.89 166 1013.04 166C945.85 166 878.01 166 810.82 166C742.98 166 675.14 166 607.95 166C540.11 166 472.92 166 405.08 166C337.9 166 270.05 166 202.87 166C135.02 166 67.84 166 33.59 166L0 166L0 140.44Z" fill="#F3F4F4" fill-opacity="1.000000" fill-rule="evenodd"/>
	<path id="Vector" d="M33.59 140.44C67.84 140.44 135.02 140.44 202.87 106.59C270.05 72.39 337.9 4.69 405.08 0.2C472.92 -3.94 540.11 55.47 607.95 68.25C675.14 81.03 742.98 47.18 810.82 55.47C878.01 64.1 945.85 114.88 1013.04 114.88C1080.89 114.88 1148.06 64.1 1215.91 42.69C1283.1 21.62 1350.94 29.91 1418.13 34.4C1485.97 38.54 1553.16 38.54 1587.41 38.54L1621 38.54L1621 166L1587.41 166C1553.16 166 1485.97 166 1418.13 166C1350.94 166 1283.1 166 1215.91 166C1148.06 166 1080.89 166 1013.04 166C945.85 166 878.01 166 810.82 166C742.98 166 675.14 166 607.95 166C540.11 166 472.92 166 405.08 166C337.9 166 270.05 166 202.87 166C135.02 166 67.84 166 33.59 166L0 166L0 140.44L33.59 140.44Z" stroke="#000000" stroke-opacity="1.000000" stroke-width="0.000000"/>
</svg>
