<svg width="2087.000000" height="239.000000" viewBox="0 0 2087 239" fill="none" xmlns="http://www.w3.org/2000/svg" xmlns:xlink="http://www.w3.org/1999/xlink">
	<desc>
			Created with Pixso.
	</desc>
	<defs/>
	<path id="Vector" d="M0 202.2L43.24 202.2C87.34 202.2 173.84 202.2 261.19 153.46C347.69 104.23 435.03 6.76 521.53 0.29C608.88 -5.67 695.38 79.86 782.73 98.26C869.23 116.66 956.57 67.92 1043.92 79.86C1130.42 92.29 1217.77 165.4 1304.27 165.4C1391.62 165.4 1478.11 92.29 1565.46 61.46C1651.96 31.13 1739.31 43.06 1825.81 49.53C1913.15 55.49 1999.65 55.49 2043.75 55.49L2087 55.49L2087 239L2043.75 239C1999.65 239 1913.15 239 1825.81 239C1739.31 239 1651.96 239 1565.46 239C1478.11 239 1391.62 239 1304.27 239C1217.77 239 1130.42 239 1043.92 239C956.57 239 869.23 239 782.73 239C695.38 239 608.88 239 521.53 239C435.03 239 347.69 239 261.19 239C173.84 239 87.34 239 43.24 239L0 239L0 202.2Z" fill="#D9D9D9" fill-opacity="1.000000" fill-rule="evenodd"/>
	<path id="Vector" d="M43.24 202.2C87.34 202.2 173.84 202.2 261.19 153.46C347.69 104.23 435.03 6.76 521.53 0.29C608.88 -5.67 695.38 79.86 782.73 98.26C869.23 116.66 956.57 67.92 1043.92 79.86C1130.42 92.29 1217.77 165.4 1304.27 165.4C1391.62 165.4 1478.11 92.29 1565.46 61.46C1651.96 31.13 1739.31 43.06 1825.81 49.53C1913.15 55.49 1999.65 55.49 2043.75 55.49L2087 55.49L2087 239L2043.75 239C1999.65 239 1913.15 239 1825.81 239C1739.31 239 1651.96 239 1565.46 239C1478.11 239 1391.62 239 1304.27 239C1217.77 239 1130.42 239 1043.92 239C956.57 239 869.23 239 782.73 239C695.38 239 608.88 239 521.53 239C435.03 239 347.69 239 261.19 239C173.84 239 87.34 239 43.24 239L0 239L0 202.2L43.24 202.2Z" stroke="#000000" stroke-opacity="1.000000" stroke-width="0.000000"/>
</svg>
